<?xml version="1.0" encoding="UTF-8" standalone="no"?>
<!-- Created with Inkscape (http://www.inkscape.org/) -->

<svg
   xmlns:dc="http://purl.org/dc/elements/1.1/"
   xmlns:cc="http://creativecommons.org/ns#"
   xmlns:rdf="http://www.w3.org/1999/02/22-rdf-syntax-ns#"
   xmlns:svg="http://www.w3.org/2000/svg"
   xmlns="http://www.w3.org/2000/svg"
   xmlns:sodipodi="http://sodipodi.sourceforge.net/DTD/sodipodi-0.dtd"
   xmlns:inkscape="http://www.inkscape.org/namespaces/inkscape"
   width="744.09448819"
   height="1052.3622047"
   id="svg2"
   version="1.1"
   inkscape:version="0.48.4 r9939"
   sodipodi:docname="New document 1">
  <defs
     id="defs4" />
  <sodipodi:namedview
     id="base"
     pagecolor="#ffffff"
     bordercolor="#666666"
     borderopacity="1.0"
     inkscape:pageopacity="0.0"
     inkscape:pageshadow="2"
     inkscape:zoom="1.4"
     inkscape:cx="151.86625"
     inkscape:cy="820.84274"
     inkscape:document-units="px"
     inkscape:current-layer="layer1"
     showgrid="false"
     inkscape:window-width="1920"
     inkscape:window-height="1138"
     inkscape:window-x="-8"
     inkscape:window-y="-8"
     inkscape:window-maximized="1" />
  <metadata
     id="metadata7">
    <rdf:RDF>
      <cc:Work
         rdf:about="">
        <dc:format>image/svg+xml</dc:format>
        <dc:type
           rdf:resource="http://purl.org/dc/dcmitype/StillImage" />
        <dc:title></dc:title>
      </cc:Work>
    </rdf:RDF>
  </metadata>
  <g
     inkscape:label="Layer 1"
     inkscape:groupmode="layer"
     id="layer1">
    <rect
       y="194.50504"
       x="22.142843"
       height="110.71429"
       width="113.57143"
       id="rect3767"
       style="fill:#ffff00;stroke:#babb3e;stroke-width:6.30000019;stroke-miterlimit:4;stroke-opacity:1;stroke-dasharray:none"
       inkscape:export-filename="C:\Users\wbreger\Desktop\filledRed.png"
       inkscape:export-xdpi="90"
       inkscape:export-ydpi="90" />
    <rect
       y="195.93361"
       x="150.71428"
       height="110.71429"
       width="113.57143"
       id="rect3773"
       style="fill:#ffff00;stroke:#babb3e;stroke-width:6.30000019;stroke-miterlimit:4;stroke-opacity:1;stroke-dasharray:none"
       inkscape:export-filename="C:\Users\wbreger\Desktop\filledBlack.png"
       inkscape:export-xdpi="90"
       inkscape:export-ydpi="90" />
    <path
       d="m 112.85715,118.79076 a 40.714287,40.714287 0 1 1 -81.428576,0 40.714287,40.714287 0 1 1 81.428576,0 z"
       sodipodi:ry="40.714287"
       sodipodi:rx="40.714287"
       sodipodi:cy="118.79076"
       sodipodi:cx="72.14286"
       id="path3775"
       style="fill:#000000;fill-rule:evenodd;stroke:#000000;stroke-width:1px;stroke-linecap:butt;stroke-linejoin:miter;stroke-opacity:1"
       sodipodi:type="arc"
       transform="translate(135,134.28571)"
       inkscape:export-filename="C:\Users\wbreger\Desktop\filledBlack.png"
       inkscape:export-xdpi="90"
       inkscape:export-ydpi="90" />
    <path
       transform="matrix(0.80925291,0,0,0.82679677,148.76104,154.86066)"
       sodipodi:type="arc"
       style="fill:#4d4d4d;fill-rule:evenodd;stroke:#000000;stroke-width:1px;stroke-linecap:butt;stroke-linejoin:miter;stroke-opacity:1"
       id="path3777"
       sodipodi:cx="72.14286"
       sodipodi:cy="118.79076"
       sodipodi:rx="40.714287"
       sodipodi:ry="40.714287"
       d="m 112.85715,118.79076 a 40.714287,40.714287 0 1 1 -81.428576,0 40.714287,40.714287 0 1 1 81.428576,0 z"
       inkscape:export-filename="C:\Users\wbreger\Desktop\filledBlack.png"
       inkscape:export-xdpi="90"
       inkscape:export-ydpi="90" />
    <path
       d="m 112.85715,118.79076 a 40.714287,40.714287 0 1 1 -81.428576,0 40.714287,40.714287 0 1 1 81.428576,0 z"
       sodipodi:ry="40.714287"
       sodipodi:rx="40.714287"
       sodipodi:cy="118.79076"
       sodipodi:cx="72.14286"
       id="path3779"
       style="fill:#800000;fill-rule:evenodd;stroke:#000000;stroke-width:1px;stroke-linecap:butt;stroke-linejoin:miter;stroke-opacity:1"
       sodipodi:type="arc"
       transform="translate(5.7142857,132.14286)"
       inkscape:export-filename="C:\Users\wbreger\Desktop\filledRed.png"
       inkscape:export-xdpi="90"
       inkscape:export-ydpi="90" />
    <path
       transform="matrix(0.80925291,0,0,0.82679677,19.475327,152.7178)"
       sodipodi:type="arc"
       style="fill:#ff0000;fill-rule:evenodd;stroke:#000000;stroke-width:1px;stroke-linecap:butt;stroke-linejoin:miter;stroke-opacity:1"
       id="path3781"
       sodipodi:cx="72.14286"
       sodipodi:cy="118.79076"
       sodipodi:rx="40.714287"
       sodipodi:ry="40.714287"
       d="m 112.85715,118.79076 a 40.714287,40.714287 0 1 1 -81.428576,0 40.714287,40.714287 0 1 1 81.428576,0 z"
       inkscape:export-filename="C:\Users\wbreger\Desktop\filledRed.png"
       inkscape:export-xdpi="90"
       inkscape:export-ydpi="90" />
    <rect
       style="fill:#ffff00;stroke:#babb3e;stroke-width:6.30000019;stroke-miterlimit:4;stroke-opacity:1;stroke-dasharray:none"
       id="rect3785"
       width="113.57143"
       height="110.71429"
       x="147.85713"
       y="63.790752"
       inkscape:export-filename="C:\Users\wbreger\Desktop\open.png"
       inkscape:export-xdpi="90"
       inkscape:export-ydpi="90" />
    <path
       transform="translate(132.14286,2.1428527)"
       sodipodi:type="arc"
       style="fill:#ffffff;fill-rule:evenodd;stroke:none;stroke-width:1px;stroke-linecap:butt;stroke-linejoin:miter;stroke-opacity:1;fill-opacity:1"
       id="path3787"
       sodipodi:cx="72.14286"
       sodipodi:cy="118.79076"
       sodipodi:rx="40.714287"
       sodipodi:ry="40.714287"
       d="m 112.85715,118.79076 a 40.714287,40.714287 0 1 1 -81.428576,0 40.714287,40.714287 0 1 1 81.428576,0 z"
       inkscape:export-filename="C:\Users\wbreger\Desktop\open.png"
       inkscape:export-xdpi="90"
       inkscape:export-ydpi="90" />
    <path
       d="m 112.85715,118.79076 a 40.714287,40.714287 0 1 1 -81.428576,0 40.714287,40.714287 0 1 1 81.428576,0 z"
       sodipodi:ry="40.714287"
       sodipodi:rx="40.714287"
       sodipodi:cy="118.79076"
       sodipodi:cx="72.14286"
       id="path3789"
       style="fill:#ffffff;fill-rule:evenodd;stroke:none;stroke-width:1px;stroke-linecap:butt;stroke-linejoin:miter;stroke-opacity:1;fill-opacity:1"
       sodipodi:type="arc"
       transform="matrix(0.80925291,0,0,0.82679677,145.9039,22.717803)"
       inkscape:export-filename="C:\Users\wbreger\Desktop\open.png"
       inkscape:export-xdpi="90"
       inkscape:export-ydpi="90" />
    <path
       transform="translate(390,3.5714241)"
       sodipodi:type="arc"
       style="fill:#000000;fill-rule:evenodd;stroke:#000000;stroke-width:1px;stroke-linecap:butt;stroke-linejoin:miter;stroke-opacity:1"
       id="path3795"
       sodipodi:cx="72.14286"
       sodipodi:cy="118.79076"
       sodipodi:rx="40.714287"
       sodipodi:ry="40.714287"
       d="m 112.85715,118.79076 a 40.714287,40.714287 0 1 1 -81.428576,0 40.714287,40.714287 0 1 1 81.428576,0 z"
       inkscape:export-filename="C:\Users\wbreger\Desktop\blackPlayer.png"
       inkscape:export-xdpi="90"
       inkscape:export-ydpi="90" />
    <path
       d="m 112.85715,118.79076 a 40.714287,40.714287 0 1 1 -81.428576,0 40.714287,40.714287 0 1 1 81.428576,0 z"
       sodipodi:ry="40.714287"
       sodipodi:rx="40.714287"
       sodipodi:cy="118.79076"
       sodipodi:cx="72.14286"
       id="path3797"
       style="fill:#4d4d4d;fill-rule:evenodd;stroke:#000000;stroke-width:1px;stroke-linecap:butt;stroke-linejoin:miter;stroke-opacity:1"
       sodipodi:type="arc"
       transform="matrix(0.80925291,0,0,0.82679677,403.76104,24.146374)"
       inkscape:export-filename="C:\Users\wbreger\Desktop\blackPlayer.png"
       inkscape:export-xdpi="90"
       inkscape:export-ydpi="90" />
    <path
       transform="translate(260.71429,1.4285741)"
       sodipodi:type="arc"
       style="fill:#800000;fill-rule:evenodd;stroke:#000000;stroke-width:1px;stroke-linecap:butt;stroke-linejoin:miter;stroke-opacity:1"
       id="path3799"
       sodipodi:cx="72.14286"
       sodipodi:cy="118.79076"
       sodipodi:rx="40.714287"
       sodipodi:ry="40.714287"
       d="m 112.85715,118.79076 a 40.714287,40.714287 0 1 1 -81.428576,0 40.714287,40.714287 0 1 1 81.428576,0 z"
       inkscape:export-filename="C:\Users\wbreger\Desktop\redPlayer.png"
       inkscape:export-xdpi="90"
       inkscape:export-ydpi="90" />
    <path
       d="m 112.85715,118.79076 a 40.714287,40.714287 0 1 1 -81.428576,0 40.714287,40.714287 0 1 1 81.428576,0 z"
       sodipodi:ry="40.714287"
       sodipodi:rx="40.714287"
       sodipodi:cy="118.79076"
       sodipodi:cx="72.14286"
       id="path3801"
       style="fill:#ff0000;fill-rule:evenodd;stroke:#000000;stroke-width:1px;stroke-linecap:butt;stroke-linejoin:miter;stroke-opacity:1"
       sodipodi:type="arc"
       transform="matrix(0.80925291,0,0,0.82679677,274.47533,22.003514)"
       inkscape:export-filename="C:\Users\wbreger\Desktop\redPlayer.png"
       inkscape:export-xdpi="90"
       inkscape:export-ydpi="90" />
    <rect
       style="fill:#ffffff;stroke:none;stroke-width:6.29999999999999980;stroke-miterlimit:4;stroke-opacity:1;stroke-dasharray:none;fill-opacity:1"
       id="rect3803"
       width="113.57143"
       height="110.71429"
       x="19.2857"
       y="338.07648" />
    <rect
       style="fill:#ffffff;stroke:none;stroke-width:6.29999999999999980;stroke-miterlimit:4;stroke-opacity:1;stroke-dasharray:none;fill-opacity:1"
       id="rect3805"
       width="113.57143"
       height="110.71429"
       x="147.85713"
       y="339.50504" />
    <path
       transform="translate(132.14286,277.85714)"
       sodipodi:type="arc"
       style="fill:#000000;fill-rule:evenodd;stroke:#000000;stroke-width:1px;stroke-linecap:butt;stroke-linejoin:miter;stroke-opacity:1"
       id="path3807"
       sodipodi:cx="72.14286"
       sodipodi:cy="118.79076"
       sodipodi:rx="40.714287"
       sodipodi:ry="40.714287"
       d="m 112.85715,118.79076 a 40.714287,40.714287 0 1 1 -81.428576,0 40.714287,40.714287 0 1 1 81.428576,0 z" />
    <path
       d="m 112.85715,118.79076 a 40.714287,40.714287 0 1 1 -81.428576,0 40.714287,40.714287 0 1 1 81.428576,0 z"
       sodipodi:ry="40.714287"
       sodipodi:rx="40.714287"
       sodipodi:cy="118.79076"
       sodipodi:cx="72.14286"
       id="path3809"
       style="fill:#4d4d4d;fill-rule:evenodd;stroke:#000000;stroke-width:1px;stroke-linecap:butt;stroke-linejoin:miter;stroke-opacity:1"
       sodipodi:type="arc"
       transform="matrix(0.80925291,0,0,0.82679677,145.9039,298.43209)" />
    <path
       transform="translate(2.8571428,275.71429)"
       sodipodi:type="arc"
       style="fill:#800000;fill-rule:evenodd;stroke:#000000;stroke-width:1px;stroke-linecap:butt;stroke-linejoin:miter;stroke-opacity:1"
       id="path3811"
       sodipodi:cx="72.14286"
       sodipodi:cy="118.79076"
       sodipodi:rx="40.714287"
       sodipodi:ry="40.714287"
       d="m 112.85715,118.79076 a 40.714287,40.714287 0 1 1 -81.428576,0 40.714287,40.714287 0 1 1 81.428576,0 z" />
    <path
       d="m 112.85715,118.79076 a 40.714287,40.714287 0 1 1 -81.428576,0 40.714287,40.714287 0 1 1 81.428576,0 z"
       sodipodi:ry="40.714287"
       sodipodi:rx="40.714287"
       sodipodi:cy="118.79076"
       sodipodi:cx="72.14286"
       id="path3813"
       style="fill:#ff0000;fill-rule:evenodd;stroke:#000000;stroke-width:1px;stroke-linecap:butt;stroke-linejoin:miter;stroke-opacity:1"
       sodipodi:type="arc"
       transform="matrix(0.80925291,0,0,0.82679677,16.618184,296.28923)" />
  </g>
</svg>
